<?xml version="1.0" encoding="UTF-8" standalone="no"?>
<!DOCTYPE svg PUBLIC "-//W3C//DTD SVG 1.1//EN" "http://www.w3.org/Graphics/SVG/1.1/DTD/svg11.dtd">
<svg width="100%" height="100%" viewBox="0 0 774 774" version="1.1" xmlns="http://www.w3.org/2000/svg" xmlns:xlink="http://www.w3.org/1999/xlink" xml:space="preserve" xmlns:serif="http://www.serif.com/" style="fill-rule:evenodd;clip-rule:evenodd;stroke-linejoin:round;stroke-miterlimit:2;">
    <g transform="matrix(1,0,0,1,-1108.49,-448.961)">
        <g id="Brandmark" transform="matrix(3.06059,0,0,3.06059,1108.49,-62.1581)">
            <rect x="0" y="167" width="252.84" height="252.84" style="fill:none;"/>
            <clipPath id="_clip1">
                <rect x="0" y="167" width="252.84" height="252.84"/>
            </clipPath>
            <g clip-path="url(#_clip1)">
                <g transform="matrix(0.337621,0,0,0.326734,-378.461,20.3092)">
                    <rect x="1120.96" y="448.961" width="748.888" height="773.84" style="fill:rgb(255,184,29);"/>
                </g>
                <g transform="matrix(0.124774,0,0,0.124774,-153.169,-61.0869)">
                    <path d="M2304.25,3425.5C2279.4,3499.82 2237.6,3568.18 2181.2,3624.76C2134.63,3671.17 2079.73,3708.45 2019.6,3734.79C1930.03,3775.49 1830.47,3788.9 1733.45,3773.27C1636.26,3757.64 1545.9,3713.77 1473.71,3647.13C1467.05,3640.94 1460.38,3634.6 1453.88,3628.09C1447.37,3621.59 1440.95,3615 1434.84,3608.26C1368.12,3535.98 1324.33,3445.7 1308.7,3348.52C1293.07,3251.5 1306.48,3151.94 1347.18,3062.37C1386.92,2969.63 1453.24,2890.62 1537.73,2835.17C1622.22,2779.87 1721.23,2750.68 1822.14,2751.31L2151.05,2751.31L2151.05,2661.35L2150.88,2661.35L2150.88,2422.55C2150.24,2321.65 2179.43,2222.64 2234.73,2138.15C2290.18,2053.66 2369.19,1987.34 2461.93,1947.6C2551.5,1906.9 2651.06,1893.49 2748.09,1909.12C2831.58,1922.55 2910.03,1956.82 2976.26,2008.47C3000.24,2028.75 3005.2,2032.84 3007.82,2035.26L3007.83,2035.26C3011.78,2038.93 3015.73,2042.65 3019.66,2046.44L3019.7,2046.48C3022.37,2049.06 3025.03,2051.66 3027.66,2054.3C3034.16,2060.8 3040.59,2067.38 3046.7,2074.13C3113.34,2146.48 3157.29,2236.76 3172.84,2333.86C3188.47,2430.89 3175.06,2530.45 3134.36,2620.01C3094.54,2712.83 3028.3,2791.77 2943.81,2847.22C2859.32,2902.51 2760.31,2931.71 2659.4,2931.07L2330.96,2931.07L2330.96,3245.59L2695.95,3245.59L2695.95,3425.5L2304.25,3425.5ZM2659.34,2792.76L1822.01,2792.76L1821.88,2792.76C1729.12,2792.17 1638.11,2819.01 1560.45,2869.83C1482.78,2920.81 1421.81,2993.44 1385.1,3079.11L1384.91,3079.52C1347.59,3161.65 1335.29,3252.95 1349.62,3341.94L1349.62,3341.94C1363.95,3431.07 1404.11,3513.86 1465.42,3580.29L1465.56,3580.43C1471.21,3586.68 1477.16,3592.76 1483.19,3598.78C1489.31,3604.91 1495.59,3610.89 1501.89,3616.74C1568.09,3677.82 1650.93,3718.02 1740.03,3732.35L1740.04,3732.35C1829.01,3746.68 1920.32,3734.38 2002.71,3696.94L2002.97,3696.83C2058.38,3672.56 2108.98,3638.21 2151.92,3595.42C2200.38,3546.79 2237.11,3488.69 2260.33,3425.5L2154.62,3425.5C2115.82,3505.7 2049.12,3571.41 1963.96,3608.16C1831.14,3669.82 1674.07,3644.83 1567.01,3544.96C1561.81,3540.27 1556.69,3535.33 1551.74,3530.39C1546.78,3525.43 1541.99,3520.46 1537.28,3515.26C1437.13,3408.12 1412.07,3250.76 1473.9,3117.81C1493.64,3073.56 1521.31,3033.36 1555.44,2999.22C1626.04,2928.08 1722.33,2888.54 1822.37,2889.63L2659.53,2889.63L2659.66,2889.63C2752.42,2890.21 2843.43,2863.38 2921.09,2812.56C2998.76,2761.57 3059.66,2689 3096.45,2603.27L3096.63,2602.87C3133.95,2520.73 3146.25,2429.43 3131.91,2340.43L3131.91,2340.42C3117.65,2251.36 3077.33,2168.56 3016.1,2102.08L3015.98,2101.95C3010.33,2095.71 3004.37,2089.62 2998.35,2083.6C2992.59,2077.83 2986.68,2072.2 2980.78,2066.7L2979.71,2065.71C2913.5,2004.6 2830.63,1964.37 2741.5,1950.04L2741.49,1950.04C2652.52,1935.71 2561.22,1948.01 2478.67,1985.51L2478.26,1985.69C2393.01,2022.23 2320.37,2083.2 2269.39,2160.87C2218.57,2238.53 2191.74,2329.54 2192.32,2422.43L2192.32,2619.9L2289.2,2619.9L2289.2,2422.55L2289.28,2422.52C2288.85,2271.19 2378.65,2134.18 2517.58,2074.22C2650.39,2012.57 2807.46,2037.55 2914.61,2137.51C2919.81,2142.2 2924.93,2147.14 2929.88,2152.08C2934.9,2157.1 2939.74,2162.13 2944.5,2167.4C3044.39,2274.47 3069.39,2431.55 3007.74,2564.36C2947.75,2703.36 2810.74,2793.26 2659.34,2792.76ZM2330.64,2519.5L2330.96,2519.5L2330.96,2751.31L2659.4,2751.31C2794.42,2751.79 2916.59,2671.51 2969.9,2547.43C3024.8,2429.7 3002.67,2290.31 2913.97,2195.43C2909.61,2190.59 2905.17,2185.99 2900.57,2181.39C2896.05,2176.87 2891.37,2172.34 2886.61,2168.06C2791.64,2079.28 2652.26,2057.15 2534.53,2112.05C2410.45,2165.36 2330.25,2287.61 2330.72,2422.64L2330.64,2422.55L2330.64,2519.5ZM2151.05,2931.07L1822.14,2931.07C1733.21,2930.04 1647.61,2965.19 1584.86,3028.41C1554.15,3059.12 1529.32,3095.21 1511.63,3134.96C1456.74,3252.69 1478.87,3392.08 1567.56,3486.96L1567.64,3487.04C1571.64,3491.48 1580.77,3500.8 1581.05,3501.08C1585.57,3505.6 1590.25,3510.12 1595.01,3514.41C1689.89,3603.1 1829.28,3625.23 1947.01,3570.34C2071.08,3517.03 2151.29,3394.77 2150.89,3259.83L2151.05,3259.83L2151.05,2931.07Z"/>
                </g>
            </g>
        </g>
    </g>
</svg>
